<?xml version="1.0" standalone="no"?>
<!DOCTYPE svg PUBLIC "-//W3C//DTD SVG 20010904//EN"
 "http://www.w3.org/TR/2001/REC-SVG-20010904/DTD/svg10.dtd">
<svg version="1.0" xmlns="http://www.w3.org/2000/svg"
 width="835.000000pt" height="835.000000pt" viewBox="0 0 835.000000 835.000000"
 preserveAspectRatio="xMidYMid meet">
<metadata>
Created by potrace 1.11, written by Peter Selinger 2001-2013
</metadata>
<g transform="translate(0.000000,835.000000) scale(0.100000,-0.100000)"
fill="#000000" stroke="none">
<path d="M2629 6265 c-3 0 -36 -163 -43 -220 -3 -16 -5 -30 -6 -30 -3 0 -10
-41 -12 -77 -2 -21 -5 -38 -8 -38 -3 0 -6 -8 -6 -17 -1 -19 -11 -83 -19 -117
-3 -12 -7 -37 -9 -56 -3 -19 -6 -36 -7 -37 -2 -4 -4 -14 -13 -68 -4 -27 -14
-81 -21 -120 -8 -38 -16 -83 -18 -100 -14 -92 -40 -232 -47 -250 -7 -18 -61
-35 -195 -61 -58 -11 -79 -14 -135 -20 -226 -21 -418 4 -612 78 -43 16 -80 29
-84 28 -4 -1 -10 2 -13 7 -3 4 -31 21 -61 37 -30 16 -62 35 -71 42 -8 8 -20
14 -26 14 -5 0 -40 23 -76 50 -36 28 -71 50 -77 50 -6 0 -8 5 -5 10 3 6 2 10
-4 10 -5 0 -36 25 -69 55 -33 30 -62 52 -66 50 -3 -3 -4 -2 -2 1 3 3 -16 27
-41 52 -24 26 -72 82 -105 125 -34 42 -65 77 -70 77 -5 0 -7 4 -4 8 3 5 -4 18
-14 30 -11 12 -20 23 -20 26 0 5 -62 108 -70 116 -3 3 -23 41 -44 85 -22 44
-44 83 -49 86 -5 3 -8 9 -8 13 3 24 -2 39 -19 56 -11 11 -17 20 -13 20 10 0
-40 41 -72 58 -20 11 -56 16 -110 16 -68 0 -87 -4 -125 -27 -94 -55 -134 -161
-102 -271 14 -51 60 -157 71 -166 3 -3 6 -11 7 -17 2 -30 5 -34 14 -28 6 4 9
3 8 -2 -4 -11 34 -87 45 -91 4 -2 7 -8 7 -14 0 -5 13 -29 30 -53 16 -24 30
-48 30 -53 0 -6 4 -12 8 -14 5 -1 23 -25 42 -53 18 -27 39 -57 47 -65 7 -8 27
-33 44 -55 64 -83 207 -230 294 -301 49 -41 97 -80 105 -87 8 -7 17 -12 19
-12 3 0 18 -12 34 -28 15 -15 32 -25 37 -22 4 3 11 -2 14 -11 4 -9 9 -14 12
-11 4 3 14 -2 24 -11 10 -9 40 -28 67 -42 26 -14 54 -31 61 -37 12 -12 19 -14
37 -13 3 1 12 -5 19 -13 14 -14 255 -113 291 -120 11 -2 27 -7 35 -10 42 -16
181 -45 265 -54 104 -13 361 -3 389 14 5 4 21 7 35 9 32 3 52 8 116 28 66 21
78 20 71 -2 -4 -11 -8 -39 -10 -64 -2 -26 -6 -54 -9 -65 -3 -10 -8 -35 -12
-57 -3 -21 -8 -42 -11 -47 -3 -5 -7 -30 -10 -56 -2 -27 -13 -97 -24 -157 -10
-59 -19 -111 -18 -115 0 -3 0 -8 -2 -11 -1 -3 -3 -16 -6 -30 -2 -14 -9 -54
-15 -90 -6 -36 -12 -78 -14 -95 -3 -16 -9 -54 -15 -84 -5 -30 -8 -56 -5 -59 3
-3 1 -10 -4 -16 -5 -6 -11 -36 -15 -66 -3 -30 -8 -66 -11 -80 -3 -14 -8 -45
-11 -69 -3 -25 -7 -48 -10 -53 -3 -4 -7 -29 -10 -55 -2 -27 -10 -82 -18 -123
-8 -41 -17 -97 -21 -125 -3 -27 -10 -68 -14 -90 -5 -22 -9 -47 -10 -55 0 -8
-2 -26 -5 -40 -15 -82 -18 -112 -20 -184 -4 -140 24 -269 81 -379 38 -71 147
-191 186 -203 12 -4 25 -11 28 -16 3 -5 12 -10 20 -12 8 -1 23 -7 34 -13 101
-53 409 -57 558 -7 12 5 27 8 32 9 18 1 190 57 210 68 11 6 27 12 35 12 24 3
155 58 158 67 2 4 8 6 13 3 4 -3 26 3 48 15 26 13 39 16 36 8 -4 -13 -9 -40
-21 -125 -4 -24 -3 -43 2 -44 5 -1 139 -2 297 -2 l288 -2 9 35 c11 39 22 112
24 148 1 12 5 22 9 22 5 0 6 4 3 8 -2 4 2 39 10 76 8 38 12 71 10 74 -3 2 0
15 5 29 5 14 12 44 15 67 2 22 7 48 9 56 5 18 12 61 19 115 3 22 8 51 11 65 3
14 8 38 10 53 2 16 6 40 10 55 3 15 7 41 10 57 4 30 60 346 70 395 2 14 7 41
9 60 3 19 12 76 21 125 9 50 18 99 20 110 1 11 8 47 14 80 6 33 13 76 16 95 3
19 10 53 14 75 5 22 9 47 10 55 4 73 26 140 57 174 18 20 31 36 28 36 -3 0 12
15 33 33 21 17 43 37 49 42 7 6 24 19 40 30 15 11 33 26 41 33 7 7 13 11 13 8
0 -2 28 8 63 24 102 46 272 62 377 35 14 -3 30 -7 35 -8 29 -6 104 -53 130
-81 93 -97 114 -255 69 -520 -13 -77 -21 -142 -19 -144 2 -3 0 -13 -5 -22 -5
-10 -12 -38 -14 -61 -2 -24 -7 -55 -10 -69 -3 -14 -8 -38 -10 -55 -3 -16 -14
-86 -26 -155 -12 -69 -24 -138 -26 -155 -3 -16 -10 -56 -15 -88 -6 -32 -12
-70 -14 -85 -2 -15 -13 -78 -24 -141 -11 -63 -19 -117 -16 -119 2 -3 0 -12 -4
-21 -5 -9 -12 -41 -16 -71 -4 -30 -9 -58 -12 -62 -2 -5 -6 -29 -9 -55 -2 -27
-13 -93 -23 -148 -10 -55 -19 -107 -19 -115 -1 -8 -4 -33 -7 -55 l-7 -40 296
1 c162 0 298 2 300 5 3 2 12 45 20 94 9 50 18 101 21 115 2 14 6 41 9 60 2 19
10 59 16 88 7 29 9 56 6 59 -3 4 -2 11 4 18 5 6 11 33 14 60 3 28 5 50 6 50 2
0 6 24 20 108 14 85 16 97 35 207 9 46 18 100 20 120 6 39 13 75 15 75 1 0 3
14 5 30 2 17 7 46 11 65 4 19 8 49 10 65 2 17 12 77 23 134 11 57 19 107 19
110 -1 5 6 45 19 106 2 11 6 34 8 50 2 17 14 84 25 150 18 98 28 131 58 180
20 32 42 66 49 75 7 8 13 18 13 23 0 17 158 149 209 175 31 15 58 29 61 32 3
3 12 5 20 5 8 -1 20 1 25 4 22 12 54 15 155 15 130 0 181 -10 233 -46 15 -11
27 -16 27 -13 0 4 20 -17 45 -46 61 -72 86 -152 86 -277 0 -51 -5 -120 -11
-153 -6 -33 -13 -72 -15 -87 -2 -15 -6 -38 -9 -51 -3 -12 -8 -43 -11 -68 -2
-24 -7 -48 -9 -51 -2 -4 -7 -32 -11 -62 -4 -30 -13 -88 -21 -129 -7 -41 -12
-77 -10 -79 3 -2 1 -14 -4 -27 -5 -13 -12 -43 -15 -66 -10 -71 -15 -103 -20
-119 -2 -8 -7 -33 -10 -55 -2 -22 -7 -51 -9 -65 -23 -121 -41 -243 -51 -330
-1 -14 -5 -36 -9 -50 -3 -14 -8 -38 -10 -55 -3 -16 -7 -41 -10 -55 -5 -29 -28
-168 -31 -190 -1 -8 -6 -37 -10 -65 -5 -27 -9 -57 -10 -65 0 -8 -3 -19 -7 -25
-3 -5 -5 -21 -4 -34 1 -19 10 -26 46 -37 127 -39 294 -37 440 4 36 11 73 18
82 16 9 -1 22 4 29 12 6 8 15 14 20 14 18 0 179 81 179 90 0 6 3 9 8 8 10 -3
72 35 72 44 0 4 4 8 10 8 10 0 45 27 87 67 13 12 23 20 23 18 0 -2 21 18 47
43 27 25 47 50 46 54 -2 4 0 7 5 5 4 -1 17 8 30 21 12 12 19 22 16 22 -4 0 6
12 22 28 43 39 81 87 64 77 -8 -5 -3 3 11 17 30 28 132 178 121 178 -4 0 -2 4
3 8 16 10 67 102 58 102 -4 0 -3 4 3 8 19 13 107 211 149 337 67 198 105 359
122 513 9 81 9 355 1 432 -11 94 -34 214 -47 235 -3 6 -7 19 -8 30 -8 48 -99
265 -117 277 -6 4 -8 8 -4 8 16 0 -148 260 -183 291 -10 9 -17 18 -14 21 2 2
-22 32 -53 66 -32 34 -57 64 -55 66 3 2 -175 176 -228 222 -87 75 -279 211
-279 197 0 -4 -4 -3 -8 2 -18 26 -249 148 -263 139 -5 -3 -9 -1 -9 4 0 19
-324 132 -450 158 -14 2 -40 9 -57 15 -18 6 -37 8 -43 4 -5 -3 -10 -1 -10 5 0
6 -4 9 -9 6 -5 -4 -20 -2 -33 3 -21 8 -88 19 -163 26 -32 3 -115 14 -155 20
-148 23 -663 23 -900 0 -30 -3 -76 -8 -102 -10 -126 -12 -174 -18 -248 -31
-25 -4 -48 -7 -53 -6 -4 1 -27 -2 -51 -8 -24 -5 -68 -12 -98 -16 -29 -3 -58
-10 -64 -15 -6 -5 -13 -7 -15 -5 -2 3 -45 -4 -94 -15 -50 -11 -101 -22 -115
-25 -14 -3 -68 -16 -120 -30 -52 -13 -104 -27 -114 -29 -118 -27 -608 -202
-626 -224 -3 -3 -14 -7 -25 -9 -11 -2 -26 -11 -32 -20 -7 -9 -13 -13 -13 -9 0
8 -59 -18 -306 -134 -72 -34 -77 -35 -70 -11 7 21 37 187 40 222 2 14 6 35 10
47 4 12 9 37 11 55 2 18 13 80 24 138 27 135 32 161 36 185 1 11 10 58 19 104
9 46 16 86 16 90 0 3 -135 6 -300 6 -165 0 -300 0 -301 0z m3276 -720 c213
-11 239 -13 270 -19 17 -3 55 -8 85 -10 60 -6 85 -10 175 -31 33 -7 63 -11 67
-9 5 3 8 0 8 -7 0 -7 3 -10 6 -7 3 4 37 -4 76 -18 38 -13 73 -23 76 -22 4 1
25 -7 47 -16 22 -10 56 -25 75 -33 70 -30 245 -118 248 -125 2 -5 7 -8 12 -8
10 0 120 -72 171 -111 20 -16 38 -27 40 -26 2 1 3 0 2 -2 -5 -7 42 -36 52 -33
6 2 7 1 3 -3 -8 -9 82 -91 96 -87 6 2 8 1 4 -3 -10 -10 24 -45 36 -38 6 3 8 3
4 -2 -4 -4 6 -21 22 -37 17 -15 30 -33 30 -38 0 -6 3 -10 8 -10 4 0 25 -25 47
-55 22 -30 42 -55 46 -55 4 0 10 -11 13 -25 4 -16 11 -23 18 -19 6 4 8 3 5 -2
-3 -5 10 -34 29 -64 18 -30 34 -61 34 -67 0 -7 5 -13 12 -13 6 0 9 -3 6 -6 -4
-3 4 -29 16 -57 34 -78 39 -90 43 -112 2 -11 8 -31 13 -45 11 -28 16 -57 29
-150 10 -71 10 -75 12 -170 1 -64 -8 -187 -16 -232 -39 -205 -88 -362 -160
-515 -24 -51 -41 -93 -39 -93 3 0 -2 -7 -10 -16 -9 -8 -16 -22 -16 -30 0 -8
-4 -14 -9 -14 -5 0 -11 -8 -15 -17 -3 -10 -14 -31 -25 -48 -10 -16 -16 -34
-13 -40 3 -5 2 -7 -3 -3 -6 6 -55 -53 -55 -67 0 -3 -8 -13 -17 -23 -10 -10
-40 -45 -68 -76 -60 -70 -83 -85 -79 -53 1 12 3 23 3 25 5 13 30 154 29 160 0
4 1 10 2 15 5 16 5 15 26 152 4 28 23 135 29 164 2 12 6 42 9 66 3 23 10 63
16 88 5 26 10 50 9 54 -1 5 -1 10 1 13 1 3 3 16 6 30 2 14 9 49 14 79 5 29 7
57 5 61 -3 5 -2 11 3 14 4 2 9 18 10 35 1 17 8 60 16 95 15 75 19 349 5 416
-5 25 -11 63 -14 85 -3 22 -9 41 -14 43 -6 2 -7 10 -4 18 3 8 1 14 -4 14 -5 0
-9 10 -10 23 -3 29 -44 117 -55 117 -5 0 -7 4 -3 10 3 5 -3 18 -14 29 -11 11
-17 21 -15 24 6 6 -105 120 -146 149 -47 34 -150 90 -150 82 0 -4 -6 -2 -12 3
-12 9 -64 25 -133 39 -88 19 -361 11 -415 -13 -8 -3 -19 -7 -25 -7 -71 -9
-335 -132 -335 -157 0 -5 -4 -9 -10 -9 -10 0 -30 -15 -76 -56 -13 -11 -35 -29
-48 -39 -14 -11 -22 -23 -19 -28 3 -6 2 -7 -3 -4 -6 3 -27 -14 -48 -39 -39
-46 -56 -55 -56 -29 0 8 -4 15 -10 15 -5 0 -10 7 -10 15 0 41 -102 168 -185
231 -39 30 -140 83 -167 88 -7 1 -29 8 -49 14 -20 7 -52 14 -71 16 -19 2 -39
5 -44 9 -12 7 -289 2 -331 -6 -99 -19 -263 -74 -263 -88 0 -5 -3 -8 -7 -7 -14
4 -53 -13 -53 -23 0 -5 -3 -8 -7 -7 -14 4 -73 -32 -73 -44 0 -6 -3 -9 -6 -5
-7 6 -70 -41 -134 -100 -30 -28 -50 -40 -50 -30 0 1 11 62 25 136 14 74 25
135 25 135 0 1 -308 -1 -506 -3 -41 -1 -61 -5 -61 -13 -1 -18 -11 -87 -17
-118 -4 -20 -54 -308 -80 -460 -3 -14 -17 -95 -32 -180 -28 -164 -32 -188 -38
-235 -2 -16 -6 -37 -10 -45 -3 -8 -8 -33 -10 -55 -3 -22 -7 -51 -10 -65 -6
-30 -46 -264 -51 -300 -2 -14 -11 -61 -19 -105 -9 -44 -18 -100 -21 -124 -3
-23 -8 -47 -11 -52 -3 -5 -7 -30 -10 -56 -15 -167 -52 -283 -90 -283 -17 0
-88 -33 -92 -43 -2 -4 -8 -4 -13 -1 -6 3 -15 1 -22 -4 -7 -6 -31 -16 -54 -23
-24 -6 -43 -16 -43 -21 0 -5 -4 -7 -9 -4 -4 3 -33 -3 -63 -14 -80 -28 -208
-60 -264 -66 -187 -19 -277 16 -311 121 -12 38 -9 153 5 229 7 33 10 62 7 64
-3 3 -1 10 4 16 4 6 11 31 14 56 4 25 9 56 12 70 2 14 6 41 9 60 2 19 16 100
30 180 14 80 28 161 31 180 2 19 14 87 25 150 21 124 29 172 35 219 2 17 6 34
9 39 2 4 7 30 10 58 3 27 16 114 30 194 13 80 27 170 30 200 6 57 10 84 20
135 5 27 15 90 22 140 1 11 3 20 4 20 2 0 7 32 14 77 2 15 7 31 10 37 8 12
113 61 132 61 8 0 14 4 14 8 0 5 6 9 13 9 6 0 65 26 131 57 65 31 122 56 127
56 5 0 9 4 9 8 0 5 6 9 13 9 6 0 50 18 97 40 47 22 146 64 220 94 74 30 137
57 138 62 2 4 7 5 11 2 4 -2 41 8 82 23 41 16 77 29 81 30 4 2 13 4 20 7 77
24 280 82 321 90 10 2 27 7 37 10 10 3 27 7 37 9 10 2 36 9 58 15 22 5 54 12
70 15 17 3 76 15 130 26 55 11 116 23 135 25 19 2 49 6 65 9 178 28 335 43
533 50 63 3 115 6 117 8 5 5 208 1 350 -7z"/>
</g>
</svg>
